<?xml version="1.0" encoding="utf-8"?>
<!-- Generator: Adobe Illustrator 18.0.0, SVG Export Plug-In . SVG Version: 6.00 Build 0)  -->
<!DOCTYPE svg PUBLIC "-//W3C//DTD SVG 1.1//EN" "http://www.w3.org/Graphics/SVG/1.1/DTD/svg11.dtd">
<svg version="1.1" id="Layer_1" xmlns="http://www.w3.org/2000/svg" xmlns:xlink="http://www.w3.org/1999/xlink" x="0px" y="0px"
	 viewBox="92.1 122.4 436.4 462.1" enable-background="new 92.1 122.4 436.4 462.1" xml:space="preserve">
<path fill="#444444" d="M482.8,232.8c7.4-11.2,11.7-24.7,11.7-39.1c0-39.3-31.9-71.2-71.2-71.2c-25,0-46.9,12.9-59.7,32.3
	c-17.1-4.3-35-6.6-53.4-6.6c-29.1,0-56.8,5.7-82.1,16c-11.2-24.6-36-41.8-64.8-41.8c-39.3,0-71.2,31.9-71.2,71.2
	c0,24.7,12.6,46.5,31.8,59.3c-20.2,33.1-31.8,71.9-31.8,113.4c0,120.5,97.7,218.2,218.2,218.2s218.2-97.7,218.2-218.2
	C528.5,316.1,511.4,269.8,482.8,232.8z"/>
<circle fill="#FFFFFF" cx="163.4" cy="192.3" r="60.6"/>
<circle fill="#FFFFFF" cx="426.9" cy="192.3" r="60.6"/>
<ellipse fill="#FFFFFF" cx="366.3" cy="335.2" rx="31.8" ry="49.1"/>
<ellipse fill="#FFFFFF" cx="248" cy="335.2" rx="31.8" ry="49.1"/>
<circle fill="#FFFFFF" cx="310.3" cy="449.4" r="104.5"/>
<circle fill="#444444" cx="302.7" cy="384.3" r="31.8"/>
</svg>
